<svg viewBox="0 0 80 80" width="80px" height="80px" xmlns="http://www.w3.org/2000/svg" xmlns:bx="https://boxy-svg.com">
  <defs>
    <bx:grid x="0" y="0" width="20" height="20"></bx:grid>
  </defs>
  <path d="M 40 0 C 62.091 0 80 17.909 80 40 L 80 70 C 80 75.523 75.523 80 70 80 L 65 80 C 59.477 80 55 75.523 55 70 L 55 57 C 55 51.477 59.477 47 65 47 L 70 47 L 70 40 C 70 23.431 56.569 10 40 10 C 23.431 10 10 23.431 10 40 L 10 47 L 15 47 C 20.523 47 25 51.477 25 57 L 25 70 C 25 75.523 20.523 80 15 80 L 10 80 C 4.477 80 0 75.523 0 70 L 0 40 C 0 17.909 17.909 0 40 0 Z" style="fill:#fff"></path>
</svg>