<svg viewBox="0 0 80 80" width="80px" height="80px" xmlns="http://www.w3.org/2000/svg" xmlns:bx="https://boxy-svg.com">
  <defs>
    <bx:grid x="0" y="0" width="20" height="20"></bx:grid>
  </defs>
  <rect style="fill:#fff" x="28" y="0" width="24" height="50" rx="12" ry="12"></rect>
  <path d="M 24 72 L 35 72 L 35 65.555 C 22.561 63.313 12.978 52.854 12.07 40 C 12.1 34.5 20 34.5 20.099 40 C 21.102 50.107 29.629 58 40 58 C 50.371 58 58.898 50.107 59.901 40 C 60 34.5 67.9 34.5 67.93 40 C 67.022 52.854 57.439 63.313 45 65.555 L 45 72 L 56 72 C 58.209 72 60 73.791 60 76 C 60 78.209 58.209 80 56 80 L 24 80 C 21.791 80 20 78.209 20 76 C 20 73.791 21.791 72 24 72 Z" style="fill:#fff"></path>
</svg>